<?xml version="1.0" encoding="utf-8"?>
<!-- Generator: Adobe Illustrator 23.0.6, SVG Export Plug-In . SVG Version: 6.00 Build 0)  -->
<svg version="1.1" id="Capa_1" xmlns="http://www.w3.org/2000/svg" xmlns:xlink="http://www.w3.org/1999/xlink" x="0px" y="0px"
	 viewBox="0 0 512 512" style="enable-background:new 0 0 512 512;" xml:space="preserve">
<style type="text/css">
	.st0{fill:#E59770;}
	.st1{fill:#DB7E56;}
	.st2{fill:#F9E8D4;}
	.st3{fill:#E8D0BA;}
	.st4{fill:#FEC007;}
	.st5{fill:#EFAD0A;}
</style>
<path class="st0" d="M326,254.6c-13.4-85.7-49.2-139-83.8-171.5c-43.8-41.2-112.1-41.2-155.9,0c-34.6,32.5-70.4,85.8-83.8,171.5
	c0,0-25.2,120.2,82.3,183c49.1,28.7,109.6,28.7,158.7,0C351.1,374.8,326,254.6,326,254.6z"/>
<path class="st1" d="M243.6,437.7c-28.8,16.8-61.6,23.8-93.7,20.9c22.9-1.9,45.5-8.9,66-20.9c107.5-62.8,82.4-183,82.4-183
	c-13.4-85.7-49.2-139-83.8-171.6c-18.2-17.1-40.6-27.1-63.8-30c32.3-3.8,66,6.2,91.4,30.1c34.6,32.5,70.4,85.8,83.8,171.6
	C326,254.6,351.1,374.8,243.6,437.7z"/>
<path class="st2" d="M509.4,255.2c-13.4-85.7-49.2-139-83.8-171.5c-43.8-41.2-112.1-41.2-155.9,0c-34.6,32.5-70.4,85.8-83.8,171.5
	c0,0-25.2,120.2,82.3,183c49.1,28.7,109.6,28.7,158.7,0C534.6,375.4,509.4,255.2,509.4,255.2z"/>
<path class="st3" d="M427.1,438.3c-28.8,16.8-61.6,23.8-93.7,20.9c22.9-1.9,45.5-8.9,66-20.9c107.5-62.8,82.4-183,82.4-183
	c-13.4-85.7-49.2-139-83.8-171.6c-18.2-17.1-40.6-27.1-63.8-30c32.3-3.8,66,6.2,91.4,30.1c34.6,32.5,70.4,85.8,83.8,171.6
	C509.4,255.3,534.6,375.4,427.1,438.3z"/>
<g>
	<path class="st4" d="M434.7,269.7c-5.3-4.3-11.5-8.2-18.5-11.8c-16.2-8.3-43.2-16.5-80.7-24.6c-15.2-3.2-24.8-6.6-28.8-10.2
		c-4.2-3.5-6.3-7.5-6.3-12c0-6.1,2.5-11.2,7.6-15.5c5.1-4.2,12.6-6.4,22.6-6.4c12.1,0,21.7,2.8,28.5,8.5
		c6.9,5.7,11.4,14.8,13.6,27.3l59.7-3.5c-5.9-29.6-20-56.2-39.8-77.4c-15-4.5-32.8-6.7-53.4-6.7c-29,0-51.8,3.6-68.4,10.9
		c-16.6,7.3-29.1,17.3-37.4,30c-8.3,12.7-12.4,26.2-12.4,40.5c0,21.8,8.1,39.6,24.3,53.7c16.1,14,42.9,25.3,80.6,33.8
		c23,5.1,37.7,10.4,44,16.1c6.3,5.7,9.5,12.1,9.5,19.3c0,7.6-3.3,14.3-10,20c-6.6,5.8-16.1,8.6-28.4,8.6c-16.4,0-29.1-5.6-37.9-16.9
		c-5.4-7-9-17.1-10.8-30.3l-81.8,5.1c2.4,28.1,12.7,51.2,30.9,69.4c6.2,6.2,14,11.3,23.5,15.4c3.5,0.2,6.9,0.3,10.5,0.3
		C358.4,413.6,426.6,350.5,434.7,269.7z"/>
	<path class="st5" d="M453.7,220.5c-3.5-28.8-14.6-49.9-33.3-63.1c-7.8-5.5-17.1-9.9-27.9-13.1c19.8,21.2,33.9,47.8,39.8,77.4
		L453.7,220.5z"/>
	<path class="st5" d="M451.7,288.8c-4.2-7-9.9-13.3-17-19.1c-8.2,80.8-76.4,143.8-159.3,143.8c-3.5,0-7-0.1-10.5-0.3
		c18.6,8,43.5,12,74.7,12c26.9,0,49.3-3.9,67-11.7c17.7-7.8,31.5-19.2,41.4-34.2c9.9-15,14.8-31.5,14.8-49.3
		C462.8,314.8,459.1,301.1,451.7,288.8z"/>
</g>
</svg>
